<?xml version="1.0" encoding="UTF-8" standalone="no"?>
<svg
   aria-hidden="true"
   role="img"
   class="iconify iconify--logos"
   width="31.88"
   height="32"
   preserveAspectRatio="xMidYMid meet"
   viewBox="0 0 256 257"
   version="1.1"
   id="svg6"
   sodipodi:docname="vite.svg"
   xml:space="preserve"
   inkscape:version="1.4.2 (ebf0e94, 2025-05-08)"
   xmlns:inkscape="http://www.inkscape.org/namespaces/inkscape"
   xmlns:sodipodi="http://sodipodi.sourceforge.net/DTD/sodipodi-0.dtd"
   xmlns="http://www.w3.org/2000/svg"
   xmlns:svg="http://www.w3.org/2000/svg"><sodipodi:namedview
     id="namedview6"
     pagecolor="#ffffff"
     bordercolor="#000000"
     borderopacity="0.25"
     inkscape:showpageshadow="2"
     inkscape:pageopacity="0.0"
     inkscape:pagecheckerboard="0"
     inkscape:deskcolor="#d1d1d1"
     inkscape:zoom="6.59375"
     inkscape:cx="-5.3838863"
     inkscape:cy="-9.0995261"
     inkscape:window-width="1920"
     inkscape:window-height="1017"
     inkscape:window-x="1912"
     inkscape:window-y="-8"
     inkscape:window-maximized="1"
     inkscape:current-layer="svg6" /><defs
     id="defs5"><linearGradient
       id="IconifyId1813088fe1fbc01fb466"
       x1="-.828%"
       x2="57.636%"
       y1="7.652%"
       y2="78.411%"><stop
         offset="0%"
         stop-color="#41D1FF"
         id="stop1" /><stop
         offset="100%"
         stop-color="#BD34FE"
         id="stop2" /></linearGradient><linearGradient
       id="IconifyId1813088fe1fbc01fb467"
       x1="43.376%"
       x2="50.316%"
       y1="2.242%"
       y2="89.03%"><stop
         offset="0%"
         stop-color="#FFEA83"
         id="stop3" /><stop
         offset="8.333%"
         stop-color="#FFDD35"
         id="stop4" /><stop
         offset="100%"
         stop-color="#FFA800"
         id="stop5" /></linearGradient></defs><path
     style="fill:#8b0000"
     d="m 76.218501,242.43115 c -4.528937,-0.44419 -7.83062,-1.34506 -11.308648,-3.08557 -8.836634,-4.42213 -14.992348,-13.04163 -16.310016,-22.83799 -0.300186,-2.23177 -0.300186,-172.489274 0,-174.721045 1.626409,-12.09174 10.526407,-22.096548 22.283571,-25.049765 3.804194,-0.955554 -0.208423,-0.895936 60.300982,-0.895936 60.50941,0 56.49679,-0.05962 60.30098,0.895936 11.75418,2.952467 20.65758,12.961094 22.28358,25.049765 0.30018,2.231771 0.30018,172.489275 0,174.721045 -0.4221,3.13814 -1.48958,6.60357 -2.90599,9.43396 -3.82747,7.64834 -10.9014,13.40757 -19.10379,15.55332 -3.91189,1.02335 1.40265,0.93761 -59.74992,0.96396 -30.39621,0.0131 -55.502047,6.4e-4 -55.790749,-0.0277 z m 20.920164,-15.3608 c 1.202993,-0.37156 2.154789,-1.22203 2.441488,-2.18155 0.125875,-0.42128 0.184445,-1.88573 0.184445,-4.61174 v -3.99443 h -2.321994 -2.321995 l -0.04011,3.71188 c -0.03438,3.18164 -0.07225,3.71189 -0.265076,3.71189 -0.192827,0 -0.230693,-0.53025 -0.265077,-3.71189 l -0.04011,-3.71188 h -2.321994 -2.321995 v 4.10719 4.10719 l 0.418935,0.80193 c 0.485806,0.92994 1.315644,1.58051 2.38145,1.86699 1.16115,0.31211 3.30012,0.26639 4.472041,-0.0956 z M 177.8184,226.9538 c 1.05621,-0.47267 1.68568,-0.99564 2.06886,-1.71885 0.29168,-0.55052 0.33991,-0.90683 0.38779,-2.86515 0.0718,-2.93543 -0.0272,-3.65952 -0.62186,-4.54774 -0.36599,-0.54668 -0.71715,-0.83437 -1.51146,-1.23827 -1.02702,-0.52222 -1.04932,-0.52613 -3.00265,-0.52613 -1.92836,0 -1.98844,0.0101 -2.98625,0.50131 -1.12517,0.55392 -1.77684,1.28632 -2.07657,2.33384 -0.23397,0.8177 -0.22408,4.92059 0.0139,5.76862 0.27763,0.98928 1.37884,2.01679 2.5817,2.40892 1.33873,0.43642 4.04799,0.37506 5.14654,-0.11655 z m -2.99626,-3.20639 c -0.0435,-0.11337 -0.0602,-1.11382 -0.037,-2.22322 0.0397,-1.9031 0.059,-2.0171 0.34201,-2.0171 0.28614,0 0.29995,0.1 0.29995,2.17259 0,1.95132 -0.0268,2.17774 -0.26291,2.22322 -0.1446,0.0278 -0.2985,-0.0421 -0.34201,-0.15549 z m 14.40263,3.18237 c 1.66576,-0.63842 2.46343,-1.87162 2.27006,-3.50952 -0.18683,-1.58253 -1.27115,-2.43427 -3.54485,-2.78447 -1.42476,-0.21945 -1.58985,-0.27372 -1.40251,-0.46106 0.21883,-0.21883 2.36312,0.11395 3.38968,0.52605 0.54584,0.21912 0.86529,0.28378 0.87034,0.17615 0.004,-0.0935 0.0976,-1.04739 0.20708,-2.11971 0.13103,-1.28312 0.14803,-1.982 0.0497,-2.0442 -0.53075,-0.33584 -2.75022,-0.65517 -4.53907,-0.65305 -1.72189,0.002 -2.04152,0.0436 -2.73579,0.35537 -1.04439,0.46907 -1.74874,1.26776 -1.98443,2.25024 -0.53763,2.24107 0.66892,3.65826 3.48292,4.09099 0.81774,0.12575 1.16231,0.24163 1.16231,0.39089 0,0.42151 -2.84268,-0.1776 -3.78366,-0.79743 -0.30755,-0.20259 -0.61818,-0.36835 -0.69029,-0.36835 -0.0721,0 -0.17779,0.72551 -0.23487,1.61224 -0.0571,0.88672 -0.14342,1.99365 -0.19188,2.45984 l -0.0881,0.84761 0.80719,0.15922 c 1.40422,0.27699 1.65962,0.29366 3.88168,0.25344 1.84709,-0.0334 2.31018,-0.0913 3.07449,-0.38425 z M 82.367482,226.79315 c 0,-0.83148 0.100857,-0.91211 1.140859,-0.91211 h 0.958793 v 0.67488 0.67489 h 2.324614 c 1.278538,0 2.324615,-0.0457 2.324615,-0.10157 0,-0.0559 -0.607399,-2.48829 -1.349776,-5.40538 -0.742377,-2.91709 -1.349776,-5.33472 -1.349776,-5.37252 0,-0.0378 -1.338793,-0.0687 -2.975095,-0.0687 h -2.975094 l -1.324311,5.21163 c -0.728371,2.8664 -1.354625,5.32974 -1.391676,5.4741 -0.06202,0.24163 0.118483,0.26245 2.27474,0.26245 h 2.342107 z m 0.601948,-5.44886 c 0.0038,-0.61839 0.178605,-1.01233 0.449324,-1.01233 0.306692,0 0.448479,0.28836 0.448479,0.91211 0,0.38631 -0.05279,0.43766 -0.449925,0.43766 -0.367213,0 -0.449549,-0.062 -0.447878,-0.33744 z m 22.37857,2.92451 0.0407,-2.96201 0.44913,2.96749 0.44914,2.96748 1.19853,-0.043 1.19854,-0.043 0.39472,-2.54957 c 0.2171,-1.40227 0.42953,-2.68456 0.47208,-2.84953 0.0425,-0.16497 0.0852,0.99921 0.0948,2.58707 l 0.0174,2.88702 h 2.10979 2.10978 l -0.0902,-4.53675 c -0.0496,-2.49521 -0.12719,-4.96005 -0.17241,-5.47742 l -0.0822,-0.94068 -2.71757,0.0408 -2.71757,0.0408 -0.30204,1.87469 -0.30204,1.87469 -0.29551,-1.91218 -0.29551,-1.91218 h -2.74372 c -2.72491,0 -2.74419,0.002 -2.81273,0.33744 -0.038,0.1856 -0.11109,2.64894 -0.16251,5.47409 l -0.0935,5.13665 h 2.10616 2.10616 z m 18.5626,1.08732 v -1.87469 h -2.17464 c -2.07466,0 -2.17464,-0.0138 -2.17464,-0.29995 0,-0.28395 0.1,-0.29995 1.87469,-0.29995 h 1.87469 v -1.42476 -1.42476 h -1.87469 c -1.77471,0 -1.87469,-0.016 -1.87469,-0.29995 0,-0.28514 0.1,-0.29996 2.02466,-0.29996 h 2.02467 v -1.57473 -1.57474 h -4.2743 -4.27429 v 5.47409 5.47409 h 4.42427 4.42427 z m 5.41062,-0.63739 0.0115,-2.51208 0.56399,2.09965 c 0.3102,1.15481 0.61,2.28524 0.66623,2.51208 l 0.10223,0.41243 h 2.32176 2.32176 v -5.47409 -5.47409 h -2.0953 -2.0953 l -0.0419,1.98717 -0.0418,1.98717 -0.44767,-1.98717 -0.44767,-1.98717 h -2.51434 -2.51434 v 5.47409 5.47409 h 2.09965 2.09965 z m 14.68605,-0.86236 v -3.37444 h 1.42476 1.42476 v -2.09965 -2.09965 h -5.17414 -5.17414 v 2.09965 2.09965 h 1.34977 1.34978 v 3.37444 3.37444 h 2.3996 2.39961 z m 7.04883,2.93678 c 0,-0.83148 0.10086,-0.91211 1.14086,-0.91211 h 0.95879 v 0.67488 0.67489 h 2.32461 c 1.27854,0 2.32462,-0.0457 2.32462,-0.10157 0,-0.0559 -0.6074,-2.48829 -1.34978,-5.40538 -0.74237,-2.91709 -1.34977,-5.33472 -1.34977,-5.37252 0,-0.0378 -1.3388,-0.0687 -2.9751,-0.0687 h -2.97509 l -1.32431,5.21163 c -0.72837,2.8664 -1.35463,5.32974 -1.39168,5.4741 -0.062,0.24163 0.11848,0.26245 2.27474,0.26245 h 2.34211 z m 0.60195,-5.44886 c 0.004,-0.61839 0.1786,-1.01233 0.44932,-1.01233 0.30669,0 0.44848,0.28836 0.44848,0.91211 0,0.38631 -0.0528,0.43766 -0.44993,0.43766 -0.36721,0 -0.44955,-0.062 -0.44787,-0.33744 z m 14.72135,5.45909 c 0.97145,-0.38286 1.78181,-1.18255 2.09261,-2.06505 0.32109,-0.91173 0.28081,-4.86524 -0.0595,-5.841 -0.33437,-0.9587 -1.15794,-1.77444 -2.21953,-2.19842 -0.73179,-0.29227 -1.15972,-0.33125 -4.22617,-0.38498 l -3.41194,-0.0598 v 5.50237 5.50237 l 3.48693,-0.0601 c 3.17321,-0.0547 3.56345,-0.0903 4.33762,-0.39539 z m -3.11021,-3.21863 c -0.0415,-0.10816 -0.0563,-0.96783 -0.0328,-1.91039 0.0372,-1.49297 0.0765,-1.72023 0.30513,-1.76404 0.23914,-0.0458 0.26245,0.12391 0.26245,1.91039 0,1.6607 -0.0351,1.96067 -0.22966,1.96067 -0.12632,0 -0.26363,-0.0885 -0.30513,-0.19663 z m 6.65219,-15.55893 c 5.09462,-0.55325 9.27499,-2.05075 13.32304,-4.77261 7.33134,-4.92951 9.69539,-10.3857 6.56522,-15.15245 -0.87507,-1.33259 -2.88188,-3.1859 -4.89794,-4.52329 -3.29364,-2.18491 -7.27827,-4.0164 -16.30851,-7.49605 -9.65774,-3.72145 -12.13235,-5.44809 -10.75782,-7.5062 0.4648,-0.69597 2.7362,-1.82105 4.66203,-2.30923 4.35503,-1.10394 8.11017,-1.49155 14.4944,-1.49612 5.77235,-0.004 7.53558,0.17317 11.90415,1.19704 1.16519,0.27308 2.17756,0.44028 2.24972,0.37154 0.0741,-0.0706 0.0831,-2.17746 0.0207,-4.84226 l -0.11056,-4.71729 -1.82034,-0.24392 c -6.81418,-0.91307 -11.4926,-1.21595 -18.61757,-1.20528 -7.91384,0.0119 -12.03126,0.30537 -17.91369,1.27705 -12.80389,2.11497 -21.67443,6.96341 -26.58972,14.53336 -1.61178,2.48228 -2.56745,4.45617 -4.79232,9.89836 -3.64321,8.91157 -6.07278,12.21354 -10.34602,14.06104 -1.72536,0.74594 -3.03675,0.98771 -5.37247,0.99047 -4.10444,0.005 -7.067103,-1.25305 -9.911687,-4.2083 -3.823328,-3.97207 -6.171866,-9.98976 -7.216888,-18.49194 -0.302188,-2.45856 -0.254556,-12.08876 0.07335,-14.82937 0.141907,-1.18605 0.258012,-2.249 0.258012,-2.36211 0,-0.17057 -0.963389,-0.20564 -5.648218,-0.20564 h -5.648218 l 0.09986,4.53675 c 0.106037,4.81751 0.259944,7.43723 0.63659,10.8357 0.951908,8.58904 3.497414,17.54518 6.222828,21.89446 3.441653,5.49227 7.722746,9.48949 13.004763,12.14242 3.263365,1.63905 5.601515,2.29661 8.654525,2.43391 6.1371,0.27599 12.82515,-2.69741 16.84746,-7.4901 2.37741,-2.83275 3.92112,-5.72195 6.54012,-12.24043 2.38524,-5.93664 3.76118,-8.51508 5.64227,-10.57329 1.76051,-1.92628 4.59379,-3.41605 7.15968,-3.76465 l 0.79539,-0.10806 0.85433,0.81125 c 2.80014,2.65891 7.12953,5.05901 16.45175,9.1204 7.56847,3.29734 11.07114,5.12448 12.79507,6.67444 2.55025,2.29289 2.03244,4.42263 -1.48902,6.12429 -4.98312,2.40796 -10.41317,1.98721 -15.22962,-1.18009 -1.57042,-1.03271 -4.32109,-3.7325 -5.30309,-5.205 -0.36943,-0.55395 -0.71785,-0.99263 -0.77425,-0.97484 -0.0564,0.0178 -2.45226,2.06413 -5.32412,4.5474 -2.87186,2.48328 -5.41841,4.68286 -5.659,4.88796 l -0.43743,0.37291 1.71222,1.13392 c 6.77495,4.4867 14.25816,7.26438 21.68129,8.04783 1.74036,0.18368 5.85344,0.18697 7.51979,0.006 z m -60.46767,-59.53225 c 7.14348,-0.55503 12.72544,-2.08502 26.90482,-7.37452 5.63349,-2.10152 8.96667,-3.44889 10.18615,-4.11753 0.76162,-0.4176 0.98666,-0.48498 1.07753,-0.32261 0.0632,0.11288 0.51177,0.7605 0.99689,1.43916 3.03566,4.24673 6.78853,6.85984 11.55227,8.0438 2.59297,0.64444 3.6597,0.7469 7.83192,0.7522 4.28753,0.005 5.27323,-0.10976 7.8548,-0.9181 4.59695,-1.43939 8.28957,-4.72291 10.73004,-9.54128 0.86884,-1.71541 1.75372,-4.17433 2.15752,-5.99534 l 0.22447,-1.01233 h -5.89694 -5.89694 l -0.34427,0.55704 c -0.56273,0.91051 -2.04087,2.61623 -2.934,3.38574 -2.36239,2.03539 -4.3857,2.86795 -6.94451,2.85757 -3.0935,-0.0125 -6.00993,-1.74276 -8.0137,-4.75423 -1.23404,-1.85465 -1.7639,-3.30325 -1.85114,-5.06085 -0.0439,-0.88374 -0.004,-1.64294 0.10191,-1.96535 0.27903,-0.84547 1.10163,-1.67725 2.10329,-2.12677 1.70809,-0.76655 2.73206,-0.90328 6.75979,-0.90262 3.67094,6e-4 4.94473,0.0908 9.59841,0.67984 3.11339,0.39406 4.73203,0.33869 6.29557,-0.21535 3.72885,-1.3213 6.29874,-4.88255 6.352,-8.80231 0.0248,-1.82759 -0.19014,-2.68983 -1.18468,-4.75152 -4.12831,-8.558085 -14.37028,-13.521977 -24.36075,-11.80673 -5.30613,0.911 -10.05503,3.391651 -13.46008,7.03105 -4.66937,4.99073 -6.76665,11.65708 -6.03487,19.18223 l 0.14406,1.48138 -0.61033,0.72897 c -1.40771,1.68135 -4.14989,3.32654 -6.47294,3.88347 -3.24024,0.77682 -6.19042,0.0347 -9.25993,-2.32928 -4.01125,-3.08929 -4.86942,-3.64621 -8.09865,-5.25568 -2.7918,-1.39145 -5.07966,-2.35985 -11.01372,-4.66188 -7.5117,-2.91404 -9.982174,-4.09562 -11.285809,-5.39775 -3.126104,-3.1225 3.463909,-5.72425 16.075559,-6.34665 5.44847,-0.26888 11.66982,0.34921 15.88923,1.57861 0.43464,0.12664 0.79713,0.16073 0.87552,0.0823 0.14047,-0.14047 0.0931,-9.380655 -0.0488,-9.522297 -0.0447,-0.0446 -1.25948,-0.250781 -2.69955,-0.458187 -13.8452,-1.994057 -27.100515,-1.308402 -36.409335,1.883339 -4.704888,1.613175 -7.579512,3.546125 -9.500711,6.388435 -1.951102,2.88656 -1.975417,5.37631 -0.07847,8.03465 2.334209,3.2711 6.840735,6.00401 17.724453,10.74873 5.08144,2.21524 10.12227,4.67259 11.54809,5.62957 4.3089,2.89206 4.20628,5.43059 -0.3038,7.51437 -1.27812,0.59053 -3.68996,1.19628 -5.33589,1.34014 -3.01824,0.26382 -6.634685,-0.80602 -9.807754,-2.90138 -1.346512,-0.88918 -3.856595,-3.38212 -4.861982,-4.82878 -0.429942,-0.61865 -0.839276,-1.12482 -0.909632,-1.12482 -0.07036,0 -2.50343,2.05841 -5.406832,4.57425 -2.903402,2.51583 -5.447918,4.71276 -5.65448,4.88206 l -0.375568,0.30782 2.080328,1.36176 c 6.829477,4.47051 13.767879,7.16088 20.80186,8.06593 1.87375,0.24109 6.58634,0.28197 9.18956,0.0797 z m 47.81093,-32.58181 c 0.23523,-2.83433 1.1226,-4.76862 3.07978,-6.71333 2.01449,-2.00165 4.00013,-2.84759 6.68403,-2.84759 1.67338,0 2.76916,0.26667 4.42241,1.07624 2.34193,1.14681 4.43316,3.69176 5.15426,6.27255 0.23596,0.84453 0.48185,2.54957 0.36768,2.54957 -0.035,0 -0.63262,-0.20767 -1.32812,-0.4615 -0.69551,-0.25383 -1.97384,-0.63977 -2.84074,-0.85764 -1.44392,-0.36289 -1.83419,-0.39653 -4.65068,-0.40085 -2.41631,-0.004 -3.34739,0.0536 -4.34928,0.2676 -1.67459,0.35773 -3.66365,1.02757 -5.2275,1.76041 -0.69462,0.32551 -1.29705,0.59184 -1.33874,0.59184 -0.0417,0 -0.0296,-0.55679 0.0269,-1.2373 z m 7.58917,-28.400665 c 3.40473,-0.602292 7.70073,-2.634103 11.17315,-5.28439 0.49492,-0.377741 1.62535,-1.391487 2.51208,-2.25277 l 1.61224,-1.565967 v 4.672979 4.67298 h 5.39953 5.39953 l -0.0379,-25.908207 -0.0379,-25.908206 -5.58658,-0.03932 c -5.13717,-0.03616 -5.58657,-0.01915 -5.58657,0.211463 0,0.13793 0.11567,1.269189 0.25704,2.513909 0.32816,2.889308 0.37259,12.035038 0.0707,14.561089 -0.64861,5.427906 -1.69014,9.352336 -3.46473,13.054948 -2.46409,5.141218 -5.74477,8.221804 -10.00415,9.393981 -1.70196,0.468377 -5.57845,0.466338 -7.33051,-0.0039 -4.46712,-1.198825 -8.03418,-4.675067 -11.00097,-10.720879 -1.23386,-2.514397 -2.15346,-4.822103 -4.22378,-10.599381 -2.67702,-7.470295 -3.94255,-10.363624 -5.70707,-13.047837 -1.08918,-1.65687 -3.26945,-3.887836 -4.51732,-4.622352 -3.25995,-1.918853 -7.32586,-1.922104 -10.57835,-0.0085 -1.14872,0.675868 -3.56582,3.084886 -4.49586,4.480834 -2.54893,3.825816 -4.56498,9.407748 -5.63843,15.611444 l -0.33945,1.961696 -0.78611,-1.194541 c -0.97053,-1.474757 -3.03285,-3.484451 -4.52907,-4.413485 -2.47298,-1.535524 -5.36048,-2.296114 -8.248632,-2.172751 -2.463029,0.105205 -4.368742,0.565244 -6.936351,1.674435 -0.248187,0.107216 -0.262456,-0.344178 -0.262456,-8.302728 v -8.416108 l -7.161313,0.03895 -7.161313,0.03895 -0.03792,25.908206 -0.03792,25.908207 h 6.664807 6.664806 l -0.664247,-1.402241 c -1.587674,-3.351611 -2.232794,-6.149619 -2.235531,-9.69592 -0.0021,-2.738919 0.239884,-3.977877 1.123575,-5.752379 1.275485,-2.561245 3.607036,-4.303936 6.656798,-4.975546 4.023718,-0.886091 8.693405,1.269872 10.493765,4.844898 0.98915,1.964202 1.21362,3.064961 1.21496,5.958015 9.8e-4,2.12323 -0.0571,2.809912 -0.347,4.106394 -0.41946,1.875545 -1.03637,3.663974 -1.90738,5.529509 l -0.6477,1.38727 h 6.67376 c 6.28687,0 6.66906,-0.01521 6.59268,-0.262457 -0.31211,-1.010263 -0.86681,-3.70379 -1.07328,-5.211636 -0.30459,-2.224478 -0.23062,-7.706358 0.12952,-9.598409 0.64306,-3.378425 1.35785,-5.441348 3.16988,-9.148484 1.70946,-3.497308 3.10992,-5.629217 4.6887,-7.137571 1.44,-1.375776 2.31461,-1.831956 3.66195,-1.910024 1.20977,-0.0701 2.03652,0.249399 3.0408,1.175113 1.38101,1.272975 2.39075,3.131899 4.88719,8.997295 3.69858,8.689813 5.80524,12.3053 9.28339,15.932316 5.26146,5.486656 12.5279,8.103953 19.21494,6.921025 z M 69.749223,46.228712 c 2.797963,-0.870824 4.429805,-3.784491 3.70713,-6.619111 -0.437721,-1.716918 -1.517325,-2.984729 -3.236858,-3.801141 -0.627151,-0.297763 -0.913574,-0.320428 -4.049329,-0.320428 -3.724438,0 -3.900215,0.03612 -5.348538,1.099046 -1.189654,0.873089 -2.150219,2.785745 -2.150219,4.281468 0,2.39147 1.621193,4.63389 3.869999,5.352948 1.267685,0.405344 5.913687,0.409996 7.207815,0.0072 z"
     id="path1" /></svg>
